<svg width="20" height="20" viewBox="0 0 20 20" fill="none" xmlns="http://www.w3.org/2000/svg">
<path d="M0.5 6.78906C0.5 5.96063 1.17157 5.28906 2 5.28906H17.9092V19.4996H2C1.17157 19.4996 0.5 18.828 0.5 17.9996V6.78906Z" stroke="black"/>
<path d="M8.72117 7.13011L5.00392 7.07774L12.1516 2.72162C12.9092 2.2599 13.9292 2.5145 14.3566 3.27199L16.4892 7.05148L8.72117 7.13011Z" fill="#fff" stroke="black"/>
<line x1="2.72754" y1="7.07422" x2="17.7276" y2="7.07422" stroke="black"/>
<path d="M11.4092 12.8224C11.4092 11.6196 12.3843 10.6445 13.5871 10.6445H19.5001V15.0003H13.5871C12.3843 15.0003 11.4092 14.0253 11.4092 12.8224Z" fill="#Ffff" stroke="black"/>
<ellipse cx="14.0907" cy="12.7163" rx="0.909096" ry="0.856931" fill="black"/>
</svg>
